<svg height="512pt" viewBox="0 0 512 512" width="512pt" xmlns="http://www.w3.org/2000/svg"><path d="m512 256c0 141.386719-114.613281 256-256 256s-256-114.613281-256-256 114.613281-256 256-256 256 114.613281 256 256zm0 0" fill="#00f8fe"/><path d="m512 256c0-32.289062-5.992188-63.171875-16.902344-91.621094l-72.65625-72.652344-133.257812 15.832032 15.171875 15.171875-161.628907 161.628906 28.933594 28.933594-31.015625 31.019531-17.160156-16.667969-26.171875 8.238281-22.34375-15.921874-.25 27.4375-22.046875 16.328124 140.488281 140.492188c20.109375 5.074219 41.15625 7.78125 62.839844 7.78125 141.386719 0 256-114.613281 256-256zm0 0" fill="#00d6d6"/><path d="m98.960938 380.742188 11.050781-27.890626c9.609375 3.808594 20.546875 1.542969 27.855469-5.765624l38.035156-38.035157 21.214844 21.210938-38.039063 38.039062c-15.773437 15.773438-39.375 20.660157-60.117187 12.441407zm0 0" fill="#fff"/><path d="m197.117188 330.261719-38.035157 38.035156c-5.917969 5.917969-12.953125 10.308594-20.515625 13.042969-2.59375.941406-5.257812 1.683594-7.960937 2.222656l59.90625-59.90625zm0 0" fill="#fff5cb"/><path d="m126.464844 421.300781 105.550781-105.550781 21.214844 21.210938-105.550781 105.554687zm0 0" fill="#9a4c00"/><path d="m308.3125 118.769531 87.082031 87.082031-165.585937 165.582032-87.078125-87.078125zm0 0" fill="#ffaa20"/><path d="m186.265625 327.898438 165.582031-165.582032 43.542969 43.542969-165.582031 165.582031zm0 0" fill="#ff8900"/><g fill="#ffe670"><path d="m276.199219 325.050781-120.292969-27.515625 39.898438 39.898438 55.347656 12.660156zm0 0"/><path d="m325.953125 275.292969-141.742187-32.417969-25.046876 25.046875 141.742188 32.417969zm0 0"/><path d="m375.707031 225.539062-141.742187-32.417968-25.042969 25.042968 141.738281 32.421876zm0 0"/><path d="m347.492188 157.953125-63.773438-14.589844-25.042969 25.046875 128.71875 29.441406zm0 0"/></g><path d="m387.390625 197.855469-10.253906-2.347657-47.59375-10.882812 22.308593-22.308594zm0 0" fill="#ffd400"/><path d="m422.441406 91.722656-133.257812 15.835938 117.425781 117.425781zm0 0" fill="#4a5be5"/><path d="m406.609375 224.980469-58.710937-58.710938 74.542968-74.546875zm0 0" fill="#283ee1"/><path d="m123.484375 327.644531-8.238281 26.171875 15.921875 22.34375-27.433594.253906-16.332031 22.046876-8.71875-26.015626-26.011719-8.71875 22.046875-16.328124.25-27.4375 22.34375 15.921874zm0 0" fill="#ff3c62"/><path d="m276.207031 325.046875-25.054687 25.054687-55.34375-12.664062-9.539063-9.539062 19.054688-19.058594zm0 0" fill="#ffd400"/><path d="m325.957031 275.296875-25.046875 25.046875-70.871094-16.214844 25.046876-25.046875zm0 0" fill="#ffd400"/><path d="m375.710938 225.542969-25.046876 25.046875-70.875-16.214844 25.046876-25.046875zm0 0" fill="#ffd400"/></svg>